<svg xmlns="http://www.w3.org/2000/svg" xmlns:xlink="http://www.w3.org/1999/xlink" preserveAspectRatio="xMidYMid meet" width="1920" height="1080" viewBox="0 0 1920 1080" style="width:100%;height:100%"><defs><animateMotion repeatCount="indefinite" dur="5s" begin="0s" xlink:href="#_R_G_L_0_G" fill="freeze" keyTimes="0;0.25;0.5083333;0.7666667;0.9916667;1" path="M304.06 851.17 C321.32,786.17 459.85,252.56 596.08,252.39 C706.43,252.24 939.5,850.85 953.12,851.17 C966.91,851.5 1209.62,422.4 1337.47,424.43 C1476.32,426.64 1640.91,827.98 1653.15,861.37 C1653.15,861.37 1653.15,861.37 1653.15,861.37 " keyPoints="0;0.27;0.55;0.78;1;1" keySplines="0 0 0.203 1;0.798 0 1 1;0 0 0.208 1;0.821 0 1 1;0 0 0 0" calcMode="spline"/><animateTransform repeatCount="indefinite" dur="5s" begin="0s" xlink:href="#_R_G_L_0_G" fill="freeze" attributeName="transform" from="469.042 -134.462" to="469.042 -134.462" type="translate" additive="sum" keyTimes="0;1" values="469.042 -134.462;469.042 -134.462" keySplines="0 0 1 1" calcMode="spline"/><animate attributeType="XML" attributeName="opacity" dur="5s" from="0" to="1" xlink:href="#time_group"/></defs><g id="_R_G"><g id="_R_G_L_1_G" transform=" translate(960, 540) translate(0, 0)"><path id="_R_G_L_1_G_D_0_P_0" fill="#b60065" fill-opacity="1" fill-rule="nonzero" d=" M1456.89 -631.1 C1456.89,-631.1 1456.89,711.94 1456.89,711.94 C1456.89,711.94 -1110.22,711.94 -1110.22,711.94 C-1110.22,711.94 -1110.22,-631.1 -1110.22,-631.1 C-1110.22,-631.1 1456.89,-631.1 1456.89,-631.1z "/><path id="_R_G_L_1_G_D_1_P_0" stroke="#107ce4" stroke-linecap="round" stroke-linejoin="round" fill="none" stroke-width="118" stroke-opacity="1" d=" M1456.89 -631.1 C1456.89,-631.1 1456.89,711.94 1456.89,711.94 C1456.89,711.94 -1110.22,711.94 -1110.22,711.94 C-1110.22,711.94 -1110.22,-631.1 -1110.22,-631.1 C-1110.22,-631.1 1456.89,-631.1 1456.89,-631.1z "/></g><g id="_R_G_L_0_G"><path id="_R_G_L_0_G_D_0_P_0" stroke="#107ce4" stroke-linecap="round" stroke-linejoin="round" fill="none" stroke-width="118" stroke-opacity="1" d=" M-469.04 -71.04 C-318.17,-71.04 -195.68,21.04 -195.68,134.46 C-195.68,247.88 -318.17,339.97 -469.04,339.97 C-619.91,339.97 -742.4,247.88 -742.4,134.46 C-742.4,21.04 -619.91,-71.04 -469.04,-71.04z "/></g></g><g id="time_group"/></svg>